<svg viewBox="0 0 450 92" fill="none" xmlns="http://www.w3.org/2000/svg">
<path d="M22.6021 0.617188L38.3125 49.5854L53.9746 0.617188H76.3076V71H59.292V54.5645L60.9355 20.9199L43.9199 71H32.7051L15.6411 20.8716L17.2847 54.5645V71H0.317383V0.617188H22.6021ZM115.85 71C115.27 69.9365 114.754 68.3735 114.303 66.311C111.306 70.0815 107.116 71.9668 101.734 71.9668C96.8037 71.9668 92.6143 70.4844 89.166 67.5195C85.7178 64.5225 83.9937 60.7681 83.9937 56.2563C83.9937 50.5845 86.0884 46.2983 90.2778 43.3979C94.4673 40.4976 100.558 39.0474 108.55 39.0474H113.578V36.292C113.578 31.4902 111.499 29.0894 107.342 29.0894C103.475 29.0894 101.541 30.9907 101.541 34.7935H85.2505C85.2505 29.7339 87.3936 25.625 91.6797 22.4668C95.998 19.3086 101.493 17.7295 108.164 17.7295C114.834 17.7295 120.104 19.3569 123.971 22.6118C127.838 25.8667 129.82 30.3301 129.917 36.002V59.1567C129.981 63.9585 130.722 67.6323 132.14 70.1782V71H115.85ZM105.65 60.3652C107.68 60.3652 109.356 59.9302 110.677 59.0601C112.031 58.1899 112.998 57.207 113.578 56.1113V47.7485H108.84C103.168 47.7485 100.333 50.2944 100.333 55.3862C100.333 56.8687 100.832 58.0771 101.831 59.0117C102.83 59.9141 104.103 60.3652 105.65 60.3652ZM137.071 44.4614C137.071 39.1763 137.941 34.5034 139.681 30.4429C141.421 26.3823 143.919 23.2563 147.174 21.0649C150.429 18.8413 154.215 17.7295 158.534 17.7295C163.98 17.7295 168.234 19.5664 171.295 23.2402L171.875 18.6963H186.667V69.0181C186.667 73.6265 185.588 77.6226 183.429 81.0063C181.302 84.4224 178.208 87.0327 174.147 88.8374C170.087 90.6743 165.382 91.5928 160.032 91.5928C156.197 91.5928 152.475 90.8677 148.866 89.4175C145.289 87.9673 142.549 86.082 140.648 83.7617L147.464 74.1904C150.493 77.7676 154.489 79.5562 159.452 79.5562C166.671 79.5562 170.28 75.8501 170.28 68.438V66.7944C167.154 70.2427 163.207 71.9668 158.437 71.9668C152.056 71.9668 146.9 69.5337 142.968 64.6675C139.037 59.769 137.071 53.2271 137.071 45.0415V44.4614ZM153.41 45.4766C153.41 49.7627 154.215 53.1626 155.827 55.6763C157.438 58.1577 159.694 59.3984 162.594 59.3984C166.107 59.3984 168.669 58.2222 170.28 55.8696V33.875C168.701 31.4902 166.171 30.2979 162.691 30.2979C159.791 30.2979 157.519 31.603 155.875 34.2134C154.231 36.7915 153.41 40.5459 153.41 45.4766ZM225.388 71C224.808 69.9365 224.292 68.3735 223.841 66.311C220.844 70.0815 216.654 71.9668 211.272 71.9668C206.342 71.9668 202.152 70.4844 198.704 67.5195C195.256 64.5225 193.532 60.7681 193.532 56.2563C193.532 50.5845 195.626 46.2983 199.816 43.3979C204.005 40.4976 210.096 39.0474 218.088 39.0474H223.116V36.292C223.116 31.4902 221.037 29.0894 216.88 29.0894C213.013 29.0894 211.079 30.9907 211.079 34.7935H194.789C194.789 29.7339 196.932 25.625 201.218 22.4668C205.536 19.3086 211.031 17.7295 217.702 17.7295C224.373 17.7295 229.642 19.3569 233.509 22.6118C237.376 25.8667 239.358 30.3301 239.455 36.002V59.1567C239.519 63.9585 240.26 67.6323 241.678 70.1782V71H225.388ZM215.188 60.3652C217.218 60.3652 218.894 59.9302 220.215 59.0601C221.569 58.1899 222.536 57.207 223.116 56.1113V47.7485H218.378C212.707 47.7485 209.871 50.2944 209.871 55.3862C209.871 56.8687 210.37 58.0771 211.369 59.0117C212.368 59.9141 213.641 60.3652 215.188 60.3652ZM308.049 71H291.178L266.235 27.2041V71H249.268V0.617188H266.235L291.13 44.4131V0.617188H308.049V71ZM343.337 71.9668C335.312 71.9668 328.819 69.582 323.856 64.8125C318.893 60.0107 316.412 53.7749 316.412 46.105V44.7515C316.412 39.4019 317.395 34.6807 319.36 30.5879C321.358 26.4951 324.259 23.3369 328.062 21.1133C331.864 18.8574 336.376 17.7295 341.597 17.7295C348.944 17.7295 354.745 20.0176 358.999 24.5938C363.253 29.1377 365.38 35.4863 365.38 43.6396V49.9722H332.992C333.572 52.9048 334.845 55.209 336.811 56.8848C338.777 58.5605 341.323 59.3984 344.449 59.3984C349.605 59.3984 353.633 57.5938 356.534 53.9844L363.978 62.7822C361.948 65.5859 359.063 67.8257 355.325 69.5015C351.619 71.145 347.623 71.9668 343.337 71.9668ZM341.5 30.2979C336.73 30.2979 333.895 33.4561 332.992 39.7725H349.428V38.5156C349.492 35.9053 348.832 33.8911 347.446 32.4731C346.06 31.0229 344.078 30.2979 341.5 30.2979ZM390.952 5.69287V18.6963H399.556V30.0078H390.952V53.936C390.952 55.9019 391.306 57.2715 392.015 58.0449C392.724 58.8184 394.126 59.2051 396.221 59.2051C397.832 59.2051 399.186 59.1084 400.281 58.915V70.5649C397.349 71.4995 394.287 71.9668 391.097 71.9668C385.489 71.9668 381.348 70.6455 378.673 68.0029C375.999 65.3604 374.661 61.3481 374.661 55.9663V30.0078H367.99V18.6963H374.661V5.69287H390.952ZM433.394 56.3047C433.394 54.9189 432.669 53.8071 431.219 52.9692C429.769 52.1313 427.013 51.2612 422.953 50.3589C418.892 49.4565 415.541 48.2803 412.898 46.8301C410.255 45.3477 408.241 43.5591 406.855 41.4644C405.47 39.3696 404.777 36.9688 404.777 34.2617C404.777 29.46 406.759 25.5122 410.723 22.4185C414.687 19.2925 419.875 17.7295 426.288 17.7295C433.185 17.7295 438.728 19.2925 442.917 22.4185C447.106 25.5444 449.201 29.6533 449.201 34.7451H432.862C432.862 30.5557 430.655 28.4609 426.24 28.4609C424.532 28.4609 423.098 28.9443 421.938 29.9111C420.777 30.8457 420.197 32.022 420.197 33.4399C420.197 34.8901 420.906 36.0664 422.324 36.9688C423.742 37.8711 425.998 38.6123 429.092 39.1924C432.218 39.7725 434.957 40.4653 437.31 41.271C445.173 43.978 449.104 48.8281 449.104 55.8213C449.104 60.5908 446.978 64.4741 442.724 67.4712C438.502 70.4683 433.023 71.9668 426.288 71.9668C421.809 71.9668 417.812 71.1611 414.3 69.5498C410.787 67.9385 408.048 65.7471 406.082 62.9756C404.116 60.2041 403.133 57.2876 403.133 54.2261H418.36C418.425 56.6431 419.23 58.4155 420.777 59.5435C422.324 60.6392 424.306 61.187 426.723 61.187C428.947 61.187 430.606 60.7358 431.702 59.8335C432.83 58.9312 433.394 57.7549 433.394 56.3047Z" fill="white"/>
</svg>
